<svg id="Layer_1" data-name="Layer 1" xmlns="http://www.w3.org/2000/svg" viewBox="0 0 960 540"><defs><style>.cls-1{fill:#42c9c9;}.cls-2{fill:#044854;}.cls-3{fill:#fff;}.cls-4{fill:#bcd0ce;}.cls-5{fill:#486a76;}.cls-6{fill:#1e1e1c;}.cls-7{fill:#bc1254;}.cls-8{fill:#f6c426;}.cls-9{fill:#f1f2c8;}.cls-10{fill:#e6007d;stroke:#e6007d;stroke-linecap:round;stroke-linejoin:round;stroke-width:1.24px;}</style></defs><title>14_EGG_REC_BL</title><rect class="cls-1" width="960" height="540"/><path class="cls-2" d="M698.44,268.48a22.71,22.71,0,0,0-15.28-20c-15.61-5.3-37.52-19-62.3-51.31-23.67-30.89-21.62-70-19.18-92.64a24.49,24.49,0,0,0-16.22-25.65l-.86-.3a23.87,23.87,0,0,0-21.72,3c-15.79,11.08-48.89,31-83.06,31-31.46,0-64.14-18.52-82.55-31a26.7,26.7,0,0,0-30.83.73c-6.77,5-8.45,14.35-7.27,22.69,2.83,20,2.9,58.42-19.35,90.85-17.1,24.93-43.91,41.31-62,50.24-11.68,5.75-17.48,14.41-16.07,27.16s12.39,18.85,18.16,20.74c13.2,4.32,28.8,12.31,54.76,43,26.14,30.87,27.4,72.08,24.54,94.62-1.34,10.55,1.14,21.19,9.53,27.71,8,6.2,21.93,4.19,30-1.87,9.51-7.13,19.59-14,30.07-18.76,11.74-5.36,23-8.37,30.2-9,3.9-.33,7.53-1.68,8.75-5.39,1.48-4.49,4.77-9.72,12.09-9.72,7.1,0,10.51,4.87,12.15,9.2a9.07,9.07,0,0,0,7.66,5.92c5.05.45,14,2.42,29.91,8.48,13,5,22.61,12.36,30.66,17.63,13.88,9.08,24.45,6.73,31.47,2.27a19.31,19.31,0,0,0,8.66-18.93c-2.31-16.74-4.45-55.66,17-92.29,17.7-30.23,45.29-44.93,63-53.33C690.94,288.46,699.24,280.2,698.44,268.48ZM285.1,282.05A11.93,11.93,0,1,1,297,270.12,11.93,11.93,0,0,1,285.1,282.05ZM382.38,88.88a11.93,11.93,0,1,1-11.93,11.93A11.93,11.93,0,0,1,382.38,88.88Zm.86,362.69a11.93,11.93,0,1,1,11.93-11.93A11.93,11.93,0,0,1,383.24,451.57Zm41.24-132.51h-12V297.57h12Zm0-31h-12V266.6h12Zm0-31h-12v-21.5h12Zm0-31h-12v-21.5h12Zm0-31h-12v-21.5h12Zm31.59,123.87h-12V297.57h12Zm0-31h-12V266.6h12Zm0-31h-12v-21.5h12Zm0-31h-12v-21.5h12Zm0-31h-12v-21.5h12Zm31.6,123.87h-12V297.57h12Zm0-31h-12V266.6h12Zm0-31h-12v-21.5h12Zm0-31h-12v-21.5h12Zm0-31h-12v-21.5h12Zm31.59,123.87h-12V297.57h12Zm0-31h-12V266.6h12Zm0-31h-12v-21.5h12Zm0-31h-12v-21.5h12Zm0-31h-12v-21.5h12Zm31.59,123.87h-12V297.57h12Zm0-31h-12V266.6h12Zm0-31h-12v-21.5h12Zm0-31h-12v-21.5h12Zm0-31h-12v-21.5h12ZM577.61,89.53a11.93,11.93,0,1,1-11.93,11.93A11.93,11.93,0,0,1,577.61,89.53Zm.77,360.28a11.93,11.93,0,1,1,11.93-11.93A11.93,11.93,0,0,1,578.38,449.81ZM674.9,282.12a11.93,11.93,0,1,1,11.93-11.93A11.93,11.93,0,0,1,674.9,282.12Z"/><rect class="cls-3" x="539.02" y="297.32" width="11.87" height="21.33"/><rect class="cls-3" x="413.63" y="297.32" width="11.88" height="21.33"/><rect class="cls-3" x="539.02" y="266.59" width="11.87" height="21.33"/><rect class="cls-3" x="413.63" y="266.59" width="11.88" height="21.33"/><rect class="cls-3" x="539.02" y="174.4" width="11.87" height="21.33"/><rect class="cls-3" x="413.63" y="174.4" width="11.88" height="21.33"/><path class="cls-3" d="M380.29,224.64H374.6v-2l1.16-.21-.73-2.3h-5.42l-.73,2.3,1.16.21v2h-5.69v-2l1.19-.17,5.08-14.57h3.43l5.05,14.57,1.19.17Zm-14.48-20.87-27.81,9,9.35,29.07,29.43-10.06c7-2.27,9.26-8.75,7-15.8l-1.14-3.55a13.36,13.36,0,0,0-16.82-8.64"/><polygon class="cls-3" points="371.89 211.31 370.01 217.21 373.84 217.21 371.96 211.31 371.89 211.31"/><path class="cls-3" d="M598,225.51a7.13,7.13,0,0,1-4.44,1.22h-8.14v-2l1.77-.34V212.53l-1.77-.34v-2h7.35a7.88,7.88,0,0,1,4.56,1.14,3.85,3.85,0,0,1,1.63,3.39,3.6,3.6,0,0,1-.6,2.05,3.71,3.71,0,0,1-1.77,1.36,3.51,3.51,0,0,1,2.23,1.36,4.06,4.06,0,0,1,.75,2.42,4.28,4.28,0,0,1-1.57,3.6m-1.3-21c-7.35-2.09-14.58,2.71-16.61,9.73l-1,3.54a13.25,13.25,0,0,0,9,16.39l26.17,7.76,8.5-29.24Z"/><path class="cls-3" d="M595.14,215.89a1.46,1.46,0,0,0,.55-1.24,1.52,1.52,0,0,0-.56-1.31,2.69,2.69,0,0,0-1.67-.43h-2.9v3.4h3a2.65,2.65,0,0,0,1.6-.42"/><path class="cls-3" d="M593.83,219.41h-3.31v4.77h3.06a3,3,0,0,0,2-.57,2.08,2.08,0,0,0,.69-1.7,2.68,2.68,0,0,0-.59-1.86,2.43,2.43,0,0,0-1.86-.64"/><path class="cls-4" d="M342.88,247.16,321,236.07a1.4,1.4,0,0,1-.62-1.9l11.18-22.1a1.4,1.4,0,0,1,1.9-.62l21.92,11.09a1.4,1.4,0,0,1,.62,1.9l-11.18,22.1a1.4,1.4,0,0,1-1.9.62"/><path class="cls-5" d="M345.78,233.16A8.55,8.55,0,1,1,342,221.68a8.55,8.55,0,0,1,3.77,11.48"/><path class="cls-6" d="M336.24,216.91A2.84,2.84,0,1,1,335,213.1a2.83,2.83,0,0,1,1.25,3.81"/><path class="cls-6" d="M354.31,226.05a2.84,2.84,0,1,1-1.25-3.81,2.84,2.84,0,0,1,1.25,3.81"/><path class="cls-6" d="M327.14,234.9a2.84,2.84,0,1,1-1.25-3.82,2.83,2.83,0,0,1,1.25,3.82"/><path class="cls-6" d="M345.21,244a2.84,2.84,0,1,1-1.25-3.82,2.83,2.83,0,0,1,1.25,3.82"/><path class="cls-4" d="M637,236.36,614.9,247.08a1.42,1.42,0,0,1-1.89-.65l-10.8-22.29a1.41,1.41,0,0,1,.65-1.89L625,211.53a1.41,1.41,0,0,1,1.89.66l10.81,22.28a1.42,1.42,0,0,1-.66,1.89"/><path class="cls-7" d="M627.63,225.58a8.55,8.55,0,1,1-11.42-4,8.56,8.56,0,0,1,11.42,4"/><path class="cls-6" d="M608.92,223.31a2.84,2.84,0,1,1-3.79-1.31,2.85,2.85,0,0,1,3.79,1.31"/><path class="cls-6" d="M627.14,214.48a2.84,2.84,0,1,1-3.79-1.32,2.83,2.83,0,0,1,3.79,1.32"/><path class="cls-6" d="M617.71,241.45a2.84,2.84,0,1,1-3.79-1.32,2.83,2.83,0,0,1,3.79,1.32"/><path class="cls-6" d="M635.94,232.62a2.84,2.84,0,1,1-3.8-1.32,2.84,2.84,0,0,1,3.8,1.32"/><path class="cls-8" d="M389.38,143.67a7.13,7.13,0,1,1-7.13-7.12,7.12,7.12,0,0,1,7.13,7.12"/><path class="cls-9" d="M602.07,380l-27-14.65a2,2,0,0,1-.78-2.65l17.9-33a2,2,0,0,1,2.65-.79l27,14.66a2,2,0,0,1,.79,2.64l-17.91,33a2,2,0,0,1-2.64.79"/><path class="cls-2" d="M698.44,268.48a22.71,22.71,0,0,0-15.28-20c-15.61-5.3-37.52-19-62.3-51.31-23.67-30.89-21.62-70-19.18-92.64a24.49,24.49,0,0,0-16.22-25.65l-.86-.3a23.87,23.87,0,0,0-21.72,3c-15.79,11.08-48.89,31-83.06,31-31.46,0-64.14-18.52-82.55-31a26.7,26.7,0,0,0-30.83.73c-6.77,5-8.45,14.35-7.27,22.69,2.83,20,2.9,58.42-19.35,90.85-17.1,24.93-43.91,41.31-62,50.24-11.68,5.75-17.48,14.41-16.07,27.16s12.39,18.85,18.16,20.74c13.2,4.32,28.8,12.31,54.76,43,26.14,30.87,27.4,72.08,24.54,94.62-1.34,10.55,1.14,21.19,9.53,27.71,8,6.2,21.93,4.19,30-1.87,9.51-7.13,19.59-14,30.07-18.76,11.74-5.36,23-8.37,30.2-9,3.9-.33,7.53-1.68,8.75-5.39,1.48-4.49,4.77-9.72,12.09-9.72,7.1,0,10.51,4.87,12.15,9.2a9.07,9.07,0,0,0,7.66,5.92c5.05.45,14,2.42,29.91,8.48,13,5,22.61,12.36,30.66,17.63,13.88,9.08,24.45,6.73,31.47,2.27a19.31,19.31,0,0,0,8.66-18.93c-2.31-16.74-4.45-55.66,17-92.29,17.7-30.23,45.29-44.93,63-53.33C690.94,288.46,699.24,280.2,698.44,268.48ZM285.1,282.05A11.93,11.93,0,1,1,297,270.12,11.93,11.93,0,0,1,285.1,282.05ZM382.38,88.88a11.93,11.93,0,1,1-11.93,11.93A11.93,11.93,0,0,1,382.38,88.88Zm.86,362.69a11.93,11.93,0,1,1,11.93-11.93A11.93,11.93,0,0,1,383.24,451.57Zm194.37-362a11.93,11.93,0,1,1-11.93,11.93A11.93,11.93,0,0,1,577.61,89.53Zm.77,360.28a11.93,11.93,0,1,1,11.93-11.93A11.93,11.93,0,0,1,578.38,449.81ZM674.9,282.12a11.93,11.93,0,1,1,11.93-11.93A11.93,11.93,0,0,1,674.9,282.12Z"/><rect class="cls-3" x="472.48" y="346.98" width="18.75" height="18.18"/><rect class="cls-6" x="333.71" y="292.68" width="29.5" height="18.56" rx="5.53"/><rect class="cls-6" x="590.6" y="280.47" width="42" height="42" transform="translate(46.65 683.26) rotate(-60.29)"/><path class="cls-8" d="M389.38,143.67a7.13,7.13,0,1,1-7.13-7.12,7.12,7.12,0,0,1,7.13,7.12"/><path class="cls-9" d="M602.07,380l-27-14.65a2,2,0,0,1-.78-2.65l17.9-33a2,2,0,0,1,2.65-.79l27,14.66a2,2,0,0,1,.79,2.64l-17.91,33a2,2,0,0,1-2.64.79"/><rect class="cls-3" x="539.21" y="297.84" width="11.87" height="21.33"/><rect class="cls-3" x="507.86" y="297.84" width="11.88" height="21.33"/><rect class="cls-3" x="445.16" y="297.84" width="11.87" height="21.33"/><rect class="cls-3" x="413.81" y="297.84" width="11.88" height="21.33"/><rect class="cls-3" x="539.21" y="267.11" width="11.87" height="21.33"/><rect class="cls-3" x="413.81" y="267.11" width="11.88" height="21.33"/><rect class="cls-3" x="539.21" y="174.93" width="11.87" height="21.33"/><rect class="cls-3" x="476.51" y="174.93" width="11.87" height="21.33"/><rect class="cls-3" x="476.51" y="297.84" width="11.87" height="21.33"/><rect class="cls-3" x="507.86" y="267.11" width="11.88" height="21.33"/><rect class="cls-3" x="476.51" y="267.11" width="11.87" height="21.33"/><rect class="cls-3" x="445.16" y="267.11" width="11.87" height="21.33"/><rect class="cls-3" x="539.21" y="236.39" width="11.87" height="21.33"/><rect class="cls-3" x="507.86" y="236.39" width="11.88" height="21.33"/><rect class="cls-10" x="476.51" y="236.39" width="11.87" height="21.33"/><rect class="cls-3" x="445.16" y="236.39" width="11.87" height="21.33"/><rect class="cls-3" x="413.81" y="236.39" width="11.88" height="21.33"/><rect class="cls-3" x="539.21" y="205.66" width="11.87" height="21.33"/><rect class="cls-3" x="507.86" y="205.66" width="11.88" height="21.33"/><rect class="cls-3" x="476.51" y="205.66" width="11.87" height="21.33"/><rect class="cls-3" x="445.16" y="205.66" width="11.87" height="21.33"/><rect class="cls-3" x="413.81" y="205.66" width="11.88" height="21.33"/><rect class="cls-3" x="507.86" y="174.93" width="11.88" height="21.33"/><rect class="cls-3" x="445.16" y="174.93" width="11.87" height="21.33"/><rect class="cls-3" x="413.81" y="174.93" width="11.88" height="21.33"/><path class="cls-4" d="M489,356.07a7.13,7.13,0,1,1-7.13-7.12,7.12,7.12,0,0,1,7.13,7.12"/><path class="cls-3" d="M380.29,224.64H374.6v-2l1.16-.21-.73-2.3h-5.42l-.73,2.3,1.16.21v2h-5.69v-2l1.19-.17,5.08-14.57h3.43l5.05,14.57,1.19.17Zm-14.48-20.87-27.81,9,9.35,29.07,29.43-10.06c7-2.27,9.26-8.75,7-15.8l-1.14-3.55a13.36,13.36,0,0,0-16.82-8.64"/><polygon class="cls-3" points="371.89 211.31 370.01 217.21 373.84 217.21 371.96 211.31 371.89 211.31"/><path class="cls-3" d="M598,225.51a7.13,7.13,0,0,1-4.44,1.22h-8.14v-2l1.77-.34V212.53l-1.77-.34v-2h7.35a7.88,7.88,0,0,1,4.56,1.14,3.85,3.85,0,0,1,1.63,3.39,3.6,3.6,0,0,1-.6,2.05,3.71,3.71,0,0,1-1.77,1.36,3.51,3.51,0,0,1,2.23,1.36,4.06,4.06,0,0,1,.75,2.42,4.28,4.28,0,0,1-1.57,3.6m-1.3-21c-7.35-2.09-14.58,2.71-16.61,9.73l-1,3.54a13.25,13.25,0,0,0,9,16.39l26.17,7.76,8.5-29.24Z"/><path class="cls-3" d="M595.14,215.89a1.46,1.46,0,0,0,.55-1.24,1.52,1.52,0,0,0-.56-1.31,2.69,2.69,0,0,0-1.67-.43h-2.9v3.4h3a2.65,2.65,0,0,0,1.6-.42"/><path class="cls-3" d="M593.83,219.41h-3.31v4.77h3.06a3,3,0,0,0,2-.57,2.08,2.08,0,0,0,.69-1.7,2.68,2.68,0,0,0-.59-1.86,2.43,2.43,0,0,0-1.86-.64"/><path class="cls-4" d="M342.88,247.16,321,236.07a1.4,1.4,0,0,1-.62-1.9l11.18-22.1a1.4,1.4,0,0,1,1.9-.62l21.92,11.09a1.4,1.4,0,0,1,.62,1.9l-11.18,22.1a1.4,1.4,0,0,1-1.9.62"/><path class="cls-5" d="M345.78,233.16A8.55,8.55,0,1,1,342,221.68a8.55,8.55,0,0,1,3.77,11.48"/><path class="cls-6" d="M336.24,216.91A2.84,2.84,0,1,1,335,213.1a2.83,2.83,0,0,1,1.25,3.81"/><path class="cls-6" d="M354.31,226.05a2.84,2.84,0,1,1-1.25-3.81,2.84,2.84,0,0,1,1.25,3.81"/><path class="cls-6" d="M327.14,234.9a2.84,2.84,0,1,1-1.25-3.82,2.83,2.83,0,0,1,1.25,3.82"/><path class="cls-6" d="M345.21,244a2.84,2.84,0,1,1-1.25-3.82,2.83,2.83,0,0,1,1.25,3.82"/><path class="cls-4" d="M637,236.36,614.9,247.08a1.42,1.42,0,0,1-1.89-.65l-10.8-22.29a1.41,1.41,0,0,1,.65-1.89L625,211.53a1.41,1.41,0,0,1,1.89.66l10.81,22.28a1.42,1.42,0,0,1-.66,1.89"/><path class="cls-7" d="M627.63,225.58a8.55,8.55,0,1,1-11.42-4,8.56,8.56,0,0,1,11.42,4"/><path class="cls-6" d="M608.92,223.31a2.84,2.84,0,1,1-3.79-1.31,2.85,2.85,0,0,1,3.79,1.31"/><path class="cls-6" d="M627.14,214.48a2.84,2.84,0,1,1-3.79-1.32,2.83,2.83,0,0,1,3.79,1.32"/><path class="cls-6" d="M617.71,241.45a2.84,2.84,0,1,1-3.79-1.32,2.83,2.83,0,0,1,3.79,1.32"/><path class="cls-6" d="M635.94,232.62a2.84,2.84,0,1,1-3.8-1.32,2.84,2.84,0,0,1,3.8,1.32"/></svg>